<svg width="46" height="46" viewBox="0 0 46 46" fill="none" xmlns="http://www.w3.org/2000/svg">
<circle cx="23" cy="23" r="23" fill="#2E2E30"/>
<g clip-path="url(#clip0_9_459)">
<path fill-rule="evenodd" clip-rule="evenodd" d="M22.5 11C15.599 11 10 16.599 10 23.5C10 30.401 15.599 36 22.5 36C29.3875 36 35 30.401 35 23.5C35 16.599 29.3875 11 22.5 11ZM30.7563 16.7615C32.2953 18.6358 33.1469 20.9801 33.1698 23.4052C32.8177 23.3375 29.2927 22.6187 25.7406 23.0667C25.6583 22.8896 25.5906 22.7 25.5094 22.5104C25.2885 21.989 25.0537 21.4735 24.8052 20.9646C28.7365 19.3646 30.526 17.0604 30.7563 16.7615ZM22.5 12.8448C25.2115 12.8448 27.6927 13.8604 29.5771 15.5281C29.3875 15.799 27.774 17.9552 23.9781 19.3781C22.2281 16.1656 20.2906 13.5344 19.9917 13.1281C20.8139 12.9361 21.6557 12.8407 22.5 12.8437V12.8448ZM17.9583 13.8469C18.2427 14.2271 20.1406 16.8708 21.9167 20.0156C16.9271 21.3448 12.5208 21.3177 12.0469 21.3177C12.7385 18.0094 14.976 15.2573 17.9583 13.8469ZM11.8167 23.5135V23.1885C12.2781 23.2021 17.4562 23.2698 22.7854 21.6698C23.0969 22.2667 23.3812 22.876 23.6521 23.4865C23.5167 23.5271 23.3677 23.5677 23.2323 23.6083C17.7281 25.3844 14.799 30.2375 14.5552 30.6448C12.7921 28.688 11.8165 26.1474 11.8167 23.5135ZM22.5 34.1833C20.0323 34.1833 17.7552 33.3427 15.9521 31.9333C16.1417 31.5396 18.3104 27.3635 24.3302 25.2625C24.3573 25.249 24.3719 25.249 24.3979 25.2354C25.9031 29.126 26.5125 32.3937 26.676 33.3292C25.3875 33.8854 23.9781 34.1833 22.5 34.1833ZM28.4521 32.3531C28.3438 31.7021 27.774 28.5844 26.3771 24.7469C29.726 24.2187 32.6542 25.0865 33.0208 25.2083C32.5594 28.1771 30.851 30.7396 28.4521 32.3531Z" fill="white"/>
</g>
<defs>
<clipPath id="clip0_9_459">
<rect width="25" height="25" fill="white" transform="translate(10 11)"/>
</clipPath>
</defs>
</svg>
