<svg width="46" height="46" viewBox="0 0 46 46" fill="none" xmlns="http://www.w3.org/2000/svg">
<circle cx="23" cy="23" r="23" fill="#2E2E30"/>
<path d="M34.643 16.1426C33.808 16.528 32.911 16.7884 31.968 16.9061C32.941 16.2996 33.6689 15.3451 34.016 14.2207C33.1018 14.7863 32.1013 15.1844 31.058 15.3978C30.3564 14.6174 29.4271 14.1002 28.4143 13.9264C27.4016 13.7526 26.3621 13.9319 25.4572 14.4366C24.5524 14.9412 23.8328 15.7429 23.4102 16.7173C22.9875 17.6916 22.8855 18.784 23.12 19.8249C21.2677 19.728 19.4556 19.2265 17.8014 18.3529C16.1472 17.4793 14.6878 16.2531 13.518 14.754C13.118 15.4728 12.888 16.3061 12.888 17.1936C12.8876 17.9926 13.0764 18.7793 13.4379 19.484C13.7993 20.1886 14.3222 20.7895 14.96 21.2332C14.2203 21.2087 13.4969 21.0005 12.85 20.6259V20.6884C12.8499 21.809 13.222 22.895 13.9032 23.7624C14.5843 24.6297 15.5326 25.2248 16.587 25.4467C15.9008 25.6402 15.1813 25.6687 14.483 25.5301C14.7805 26.4942 15.36 27.3374 16.1404 27.9414C16.9207 28.5455 17.8629 28.8803 18.835 28.8988C17.1848 30.2482 15.1469 30.9802 13.049 30.9769C12.6774 30.977 12.3061 30.9544 11.937 30.9092C14.0665 32.3355 16.5453 33.0924 19.077 33.0894C27.647 33.0894 32.332 25.6957 32.332 19.2832C32.332 19.0749 32.327 18.8644 32.318 18.6561C33.2293 17.9696 34.0159 17.1195 34.641 16.1457L34.643 16.1426Z" fill="white"/>
</svg>
